<svg height="512" viewBox="0 0 128 128" width="512" xmlns="http://www.w3.org/2000/svg"><g><g><path d="m121.5 64a57.216 57.216 0 0 1 -.6 8.33c-.17 1.17-.37 2.32-.61 3.46a57.535 57.535 0 0 1 -53.54 45.65c-.91.04-1.83.06-2.75.06-.34 0-.68 0-1.02-.01a57.311 57.311 0 0 1 -39.24-16.44c-.84-.82-1.66-1.67-2.44-2.54a57.259 57.259 0 0 1 -14.78-37.25c-.02-.42-.02-.84-.02-1.26q0-1.32.06-2.61a57.214 57.214 0 0 1 4.96-20.93c.64-1.41 1.32-2.79 2.07-4.13v-.01a57.569 57.569 0 0 1 36.22-28.05v-.01c1.26-.32 2.54-.59 3.83-.83a57.941 57.941 0 0 1 10.36-.93 57.19 57.19 0 0 1 28.87 7.77c1.13.65 2.23 1.34 3.31 2.07a57.685 57.685 0 0 1 17.73 19.1c.69 1.19 1.33 2.4 1.92 3.64a57.288 57.288 0 0 1 5.67 24.92z" fill="#ff9800"/><g fill="#fdd82e"><path d="m23.89 104.88a1.217 1.217 0 0 1 -.15.17c-.84-.82-1.66-1.67-2.44-2.54 20.61-26.61 25.67-46.29 23.5-56.57a15.564 15.564 0 0 0 -.45-1.7 14.517 14.517 0 0 0 -.65-1.63 11.983 11.983 0 0 0 -6.27-6.02c-5.79-2.45-14.22-1.11-24.4 3.86a1.706 1.706 0 0 1 -1.51.01c.64-1.41 1.32-2.79 2.07-4.13v-.01c10.32-4.67 18.79-5.67 25.21-2.95a15.584 15.584 0 0 1 8.25 8.17 16.453 16.453 0 0 1 .62 1.62c.18.54.33 1.11.47 1.71 2.49 11.12-2.6 32.16-24.25 60.01z"/><path d="m120.9 72.33c-.17 1.17-.37 2.32-.61 3.46a1.416 1.416 0 0 1 -.2-.04c-19.08-6.04-29.48-29.68-32.12-38.17-.17-.57-.31-1.08-.42-1.5-.18-.66-.35-1.31-.49-1.95-2.09-9.39.15-17.05 5.81-19.86 1.13.65 2.23 1.34 3.31 2.07a1.705 1.705 0 0 1 -.89.71c-4.92 1.66-6.74 8.38-4.66 16.91.09.4.2.81.31 1.22.15.6.37 1.36.67 2.26 2.83 8.59 12.39 29.37 29.29 34.89z"/></g></g><g fill="#0b2e41"><path d="m64 4.75a58.92 58.92 0 0 0 -33.52 10.387 1.75 1.75 0 1 0 1.982 2.884 55.368 55.368 0 0 1 18.538-8.243c6.85 6.1 12.505 15.459 16.447 26.756-3.116.572-6.252 1.225-9.4 1.981q-5.615 1.349-11 3.022a15.6 15.6 0 0 0 -8.247-8.167c-5.848-2.477-13.416-1.853-22.525 1.816a55.65 55.65 0 0 1 5.881-8.023 1.75 1.75 0 1 0 -2.626-2.314 59.251 59.251 0 1 0 44.47-20.099zm55.205 66.957c-15.84-6.3-24.857-25.964-27.6-34.268a108.26 108.26 0 0 1 22.19 1.537 55.391 55.391 0 0 1 5.955 25.024 55.985 55.985 0 0 1 -.545 7.707zm-64.005-62.761a55.749 55.749 0 0 1 56.44 26.128 115.983 115.983 0 0 0 -21-1.1c-1.322-5.476-1.084-10.376.725-13.567a1.75 1.75 0 1 0 -3.045-1.726c-2.2 3.885-2.612 9.335-1.241 15.455a158.408 158.408 0 0 0 -16.152 1.8c-3.798-11.076-9.191-20.436-15.727-26.99zm-10.421 37c.953 4.817 1.263 16.616-10.1 36.7a1.75 1.75 0 1 0 3.046 1.722c11.983-21.186 11.658-33.847 10.405-39.5q5.244-1.623 10.734-2.948c3.245-.78 6.478-1.448 9.687-2.027a117.424 117.424 0 0 1 4.928 28.921c.913 19.177-2.666 37.655-9.813 50.931a55.562 55.562 0 0 1 -38.829-16.106c2.644-3.456 5.119-6.9 7.349-10.265a1.75 1.75 0 1 0 -2.916-1.935c-2.091 3.152-4.4 6.383-6.873 9.628a55.514 55.514 0 0 1 -14.134-36.567c9.59-7.406 22.229-13.8 36.518-18.555zm-7.348-9.352a11.893 11.893 0 0 1 6.258 6.028c-13.567 4.516-25.705 10.49-35.289 17.407a55.7 55.7 0 0 1 5.2-19.842c9.918-4.749 18.153-5.999 23.833-3.594zm30.226 83.024c6.827-13.663 10.224-32.011 9.321-50.972a120.811 120.811 0 0 0 -4.963-29.346 154.256 154.256 0 0 1 15.966-1.717c2.562 8.284 12.5 30.9 30.632 37.644a55.857 55.857 0 0 1 -50.954 44.39z"/><path d="m24.961 23.534a1.745 1.745 0 0 0 1.189-.466q.915-.848 1.867-1.653a1.75 1.75 0 1 0 -2.26-2.672q-1.011.855-1.986 1.757a1.75 1.75 0 0 0 1.19 3.034z"/><path d="m101.64 96.5a50.336 50.336 0 0 1 -8.477 7.788 1.75 1.75 0 0 0 2.057 2.832 53.756 53.756 0 0 0 9.068-8.331 1.75 1.75 0 1 0 -2.648-2.289z"/></g></g></svg>